HIERARCHY
ROOT Model_Hips
{
	OFFSET 0.000000 96.915077 0.000000
	CHANNELS 6 Xposition Yposition Zposition Xrotation Yrotation Zrotation
	JOINT Model_Spine
	{
		OFFSET 0.000000 11.137703 -1.289900
		CHANNELS 3 Xrotation Yrotation Zrotation
		JOINT Model_Spine1
		{
			OFFSET 0.000000 12.993942 -1.504922
			CHANNELS 3 Xrotation Yrotation Zrotation
			JOINT Model_Spine2
			{
				OFFSET 0.000000 14.850220 -1.719911
				CHANNELS 3 Xrotation Yrotation Zrotation
				JOINT Model_Neck
				{
					OFFSET 0.000000 16.706543 -1.934903
					CHANNELS 3 Xrotation Yrotation Zrotation
					JOINT Model_Head
					{
						OFFSET 0.000000 10.471298 2.002100
						CHANNELS 3 Xrotation Yrotation Zrotation
						JOINT Model_HeadTop_End
						{
							OFFSET 0.000000 20.842606 3.985100
							CHANNELS 3 Xrotation Yrotation Zrotation
							End Site
							{
								OFFSET 0.000000 21.220154 0.000000
							}
						}
					}
				}
				JOINT Model_LeftShoulder
				{
					OFFSET 7.008500 14.768600 -1.919946
					CHANNELS 3 Xrotation Yrotation Zrotation
					JOINT Model_LeftArm
					{
						OFFSET 14.126271 -3.718048 0.029937
						CHANNELS 3 Xrotation Yrotation Zrotation
						JOINT Model_LeftForeArm
						{
							OFFSET 28.282801 0.000000 0.000000
							CHANNELS 3 Xrotation Yrotation Zrotation
							JOINT Model_LeftHand
							{
								OFFSET 26.204689 0.000000 0.000000
								CHANNELS 3 Xrotation Yrotation Zrotation
								End Site
								{
									OFFSET 26.204704 0.000000 0.000000
								}
							}
						}
					}
				}
				JOINT Model_RightShoulder
				{
					OFFSET -7.008500 14.768555 -1.949840
					CHANNELS 3 Xrotation Yrotation Zrotation
					JOINT Model_RightArm
					{
						OFFSET -14.126281 -3.718018 -0.029932
						CHANNELS 3 Xrotation Yrotation Zrotation
						JOINT Model_RightForeArm
						{
							OFFSET -28.283798 0.000000 -0.000001
							CHANNELS 3 Xrotation Yrotation Zrotation
							JOINT Model_RightHand
							{
								OFFSET -26.204193 0.000000 -0.000001
								CHANNELS 3 Xrotation Yrotation Zrotation
								End Site
								{
									OFFSET -26.204208 0.000000 -0.000001
								}
							}
						}
					}
				}
			}
		}
	}
	JOINT Model_LeftUpLeg
	{
		OFFSET 8.327700 -6.193199 -0.402800
		CHANNELS 3 Xrotation Yrotation Zrotation
		JOINT Model_LeftLeg
		{
			OFFSET 0.735802 -42.108742 -0.610721
			CHANNELS 3 Xrotation Yrotation Zrotation
			JOINT Model_LeftFoot
			{
				OFFSET -0.735806 -36.833748 -0.172876
				CHANNELS 3 Xrotation Yrotation Zrotation
				JOINT Model_LeftToeBase
				{
					OFFSET -0.565857 -11.977769 16.297714
					CHANNELS 3 Xrotation Yrotation Zrotation
					JOINT Model_LeftToe_End
					{
						OFFSET -0.111712 -0.312793 7.857784
						CHANNELS 3 Xrotation Yrotation Zrotation
						End Site
						{
							OFFSET -0.111712 -0.312793 7.857784
						}
					}
				}
			}
		}
	}
	JOINT Model_RightUpLeg
	{
		OFFSET -8.327700 -6.193199 -0.516500
		CHANNELS 3 Xrotation Yrotation Zrotation
		JOINT Model_RightLeg
		{
			OFFSET -0.735785 -42.108738 -0.434061
			CHANNELS 3 Xrotation Yrotation Zrotation
			JOINT Model_RightFoot
			{
				OFFSET 0.735776 -36.833748 -0.021630
				CHANNELS 3 Xrotation Yrotation Zrotation
				JOINT Model_RightToeBase
				{
					OFFSET 0.565817 -11.977745 15.903093
					CHANNELS 3 Xrotation Yrotation Zrotation
					JOINT Model_RightToe_End
					{
						OFFSET 0.111702 -0.312791 7.811342
						CHANNELS 3 Xrotation Yrotation Zrotation
						End Site
						{
							OFFSET 0.111702 -0.312791 7.811342
						}
					}
				}
			}
		}
	}
}
MOTION
Frames: 10
Frame Time: 0.033333
-0.399525 94.903313 -0.670374 -13.989485 5.594438 -0.722911 4.455828 0.549643 1.066404 8.907231 1.224748 1.800837 8.907230 1.224749 1.800838 -3.965631 -0.373531 -0.191276 -3.965630 -0.373534 -0.191275 0.000000 -0.000000 -0.000000 3.622075 2.746804 0.791888 6.583482 -26.222469 -68.383963 -0.187463 -25.866490 -0.000189 -0.000003 0.000001 -0.000002 6.023167 -1.689205 -5.579098 6.661542 15.934539 73.154365 -0.208966 31.456586 -0.005711 0.000000 0.000001 0.000000 -12.134514 4.272158 10.792059 61.596258 -3.778873 -2.367140 -1.356983 -4.341402 -4.634225 -23.033621 -1.900326 5.093314 0.000000 -0.000001 -0.000000 3.006242 -9.994354 4.528663 29.513152 -1.355807 1.080690 -18.426484 0.709697 -4.903445 -5.384502 -0.170441 0.416723 0.000001 0.000000 -0.000000 
-0.325992 94.850090 1.646214 -13.786488 4.787955 -0.875911 4.446748 0.763098 0.932890 8.886731 1.651912 1.607896 8.886736 1.651913 1.607896 -4.004017 -0.385388 -0.220595 -4.004019 -0.385390 -0.220594 -0.000000 0.000000 -0.000000 3.643502 3.144393 0.848275 7.839495 -25.391150 -68.461875 -0.200191 -26.234200 0.000983 -0.000001 -0.000000 0.000000 5.907789 -0.865637 -5.525504 8.561129 15.341273 71.673232 -0.206512 38.698680 -0.017822 0.000002 -0.000000 0.000000 -14.440620 4.121644 9.313818 55.105157 -3.148118 -2.138277 -8.603801 -0.850450 -3.892092 -6.606348 -0.180550 3.003731 0.000000 -0.000000 -0.000000 4.683079 -10.253536 4.491949 29.215123 -1.276789 1.068791 -19.540422 1.834772 -4.474573 -5.431863 -0.170345 0.416465 -0.000000 0.000000 0.000000 
-0.240423 94.881516 3.953493 -13.266111 4.312453 -1.420356 4.378372 0.908591 0.914649 8.748706 1.974530 1.569407 8.748711 1.974531 1.569409 -4.044777 -0.390460 -0.236635 -4.044774 -0.390466 -0.236635 0.000000 0.000000 -0.000000 3.672907 3.479415 0.800695 8.405610 -24.823812 -69.007170 -0.211151 -25.359977 0.000430 0.000002 0.000000 0.000001 5.804679 -0.116467 -5.490663 9.903816 15.016745 70.474281 -0.198786 43.960064 -0.021616 -0.000000 -0.000001 0.000001 -16.891237 4.871414 8.506667 47.441189 -2.358732 -1.864536 -12.988160 0.702335 -2.711360 -4.131692 -0.031408 0.071866 -0.000000 0.000001 0.000000 6.520636 -9.952418 5.163483 27.866287 -1.446876 0.993253 -20.038407 2.295672 -4.044359 -5.546021 -0.170087 0.415828 0.000000 0.000000 -0.000000 
-0.123545 94.989380 6.233103 -12.429222 4.020948 -2.361563 4.262378 0.977390 1.001779 8.516466 2.158618 1.674385 8.516468 2.158619 1.674384 -4.091002 -0.386304 -0.242957 -4.091007 -0.386309 -0.242958 0.000000 -0.000000 0.000000 3.714057 3.763605 0.641386 8.197011 -24.574662 -69.912143 -0.221243 -23.229639 -0.001491 0.000002 -0.000000 -0.000000 5.723698 0.501133 -5.524911 10.567290 14.990921 69.568864 -0.191654 47.130071 -0.024378 -0.000001 0.000003 -0.000002 -19.130267 6.631298 8.204232 38.599766 -1.627514 -1.545200 -15.934326 0.620633 -2.812108 -3.981573 -0.031347 0.071526 -0.000001 -0.000001 -0.000001 8.554067 -9.357706 6.414744 25.368325 -1.663844 0.835076 -19.779087 2.377674 -3.583775 -5.792498 -0.169457 0.414452 0.000000 0.000001 0.000000 
0.070698 94.857956 8.667219 -11.456929 3.769425 -3.507610 4.137170 0.987380 1.147394 8.267117 2.225338 1.843035 8.267111 2.225336 1.843036 -4.149609 -0.373930 -0.244503 -4.149614 -0.373933 -0.244504 0.000000 -0.000001 -0.000000 3.767489 4.015574 0.391836 7.350231 -24.641352 -70.985534 -0.232145 -20.272160 -0.003401 -0.000002 0.000000 -0.000001 5.676049 0.928314 -5.646479 10.631014 15.237428 69.025762 -0.186381 48.484433 -0.026000 0.000002 -0.000001 -0.000001 -21.325311 8.759602 7.940646 31.188215 -0.812816 -1.308694 -19.409562 -0.238101 -3.538406 -3.474080 -0.031156 0.070379 -0.000002 0.000000 0.000000 10.200511 -8.905102 7.701600 23.730647 -1.803073 0.698212 -19.936668 2.564984 -2.984005 -6.155746 -0.168485 0.412420 0.000000 -0.000000 -0.000000 
0.352960 94.595200 11.352795 -10.646398 3.444087 -4.535639 4.048166 0.994150 1.271158 8.090886 2.274009 1.961259 8.090890 2.274012 1.961260 -4.225274 -0.358794 -0.243310 -4.225260 -0.358801 -0.243310 -0.000000 -0.000000 -0.000000 3.829717 4.252276 0.107124 6.286187 -24.935287 -71.954288 -0.245067 -17.388475 -0.004377 -0.000000 -0.000000 -0.000000 5.667601 1.132938 -5.794179 10.368364 15.676517 68.896323 -0.183850 48.628143 -0.026791 0.000001 0.000001 -0.000000 -23.794093 9.935165 7.122207 28.467774 -0.036376 -0.876848 -23.544600 -1.065730 -2.111901 -3.042116 -0.031011 0.069404 -0.000003 0.000000 -0.000001 11.967099 -8.687045 8.668948 22.604733 -1.893488 0.580307 -20.302701 3.132373 -2.198160 -6.500782 -0.167592 0.410503 0.000001 0.000001 -0.000000 
0.707902 94.345581 14.298540 -10.207269 2.903135 -5.199405 4.005740 1.056426 1.310462 8.008159 2.419929 1.943750 8.008160 2.419928 1.943750 -4.310157 -0.346402 -0.235121 -4.310162 -0.346404 -0.235121 -0.000000 -0.000000 -0.000000 3.896173 4.482556 -0.154824 5.527777 -25.288647 -72.560665 -0.257864 -15.485193 -0.004680 -0.000002 0.000000 0.000000 5.697727 1.114447 -5.849617 10.070879 16.236072 69.173028 -0.184347 48.028425 -0.027123 0.000001 -0.000000 0.000001 -24.374177 9.573415 5.821819 27.264826 0.817587 -0.234192 -24.766013 -1.085689 -0.160735 -3.102218 -0.031030 0.069533 0.000000 0.000000 -0.000001 14.210606 -8.319094 9.127563 21.420158 -1.969360 0.487166 -20.450777 3.897815 -1.437657 -6.757764 -0.167078 0.409098 0.000000 0.000000 0.000000 
1.109256 94.110870 17.572073 -10.100381 1.936794 -5.463169 3.974701 1.184103 1.231629 7.948218 2.693184 1.759112 7.948218 2.693183 1.759112 -4.381419 -0.336739 -0.212427 -4.381418 -0.336737 -0.212427 -0.000000 -0.000000 0.000000 3.963684 4.712736 -0.358148 5.425495 -25.474659 -72.727123 -0.266011 -14.919698 -0.004847 -0.000000 0.000000 0.000001 5.762933 0.893244 -5.723229 9.909092 16.845014 69.843459 -0.187829 46.777804 -0.026539 -0.000001 -0.000001 0.000000 -23.369448 8.433206 4.451275 26.819701 1.821512 -0.110722 -21.710117 -1.135763 4.411974 -3.674608 -0.031245 0.070822 -0.000000 0.000001 0.000000 16.833401 -7.382835 9.051134 20.235281 -1.928145 0.443468 -20.547724 4.457863 -1.285918 -7.236321 -0.166063 0.406444 0.000000 0.000000 0.000000 
1.544373 93.804543 21.195044 -10.128593 0.456611 -5.430463 3.907599 1.319335 1.024070 7.816356 2.989046 1.401401 7.816357 2.989043 1.401402 -4.416119 -0.322576 -0.170603 -4.416128 -0.322576 -0.170600 -0.000000 0.000000 -0.000000 4.031166 4.941414 -0.494831 5.836593 -25.311281 -72.692768 -0.267468 -15.142948 -0.004947 -0.000002 -0.000000 -0.000000 5.860885 0.497083 -5.438307 9.818377 17.400624 70.948481 -0.193957 44.614055 -0.024192 0.000002 -0.000001 0.000001 -22.200022 7.909936 3.935426 27.015070 3.096056 -0.194312 -13.718421 -0.925636 6.138085 -4.282412 -0.031448 0.072195 0.000001 -0.000001 -0.000000 18.986297 -6.069368 8.262593 20.418830 -1.527691 0.469064 -20.696691 4.492904 -1.206402 -8.656127 -0.162322 0.398465 0.000000 -0.000000 0.000000 
1.989873 93.575081 25.070856 -10.186240 -1.272914 -5.147374 3.791032 1.384171 0.721792 7.587986 3.138578 0.870829 7.587989 3.138579 0.870829 -4.416443 -0.293025 -0.113046 -4.416440 -0.293022 -0.113047 0.000000 0.000000 0.000000 4.097902 5.137687 -0.580764 6.015790 -24.824809 -72.823149 -0.263399 -14.909806 -0.004971 -0.000000 0.000000 -0.000000 5.987942 -0.040096 -5.137713 9.492871 17.792383 72.526534 -0.201551 41.160602 -0.020200 0.000000 -0.000002 0.000002 -20.000283 8.948175 3.855661 25.254592 3.651604 -0.433733 -4.142129 -1.448146 6.376899 -4.309503 -0.031464 0.072271 0.000000 -0.000001 -0.000000 20.629420 -5.084000 6.837306 21.682745 -0.919723 0.588540 -20.111378 4.379111 -1.252929 -11.574960 -0.153980 0.382023 0.000000 0.000001 0.000000 
